<svg xmlns="http://www.w3.org/2000/svg" viewBox="0 0 400 400" width="100%" height="100%">
  <defs>
    <linearGradient id="oasGrad" x1="10%" y1="10%" x2="90%" y2="90%">
      <stop offset="0%" stop-color="#00ADD8" />   <stop offset="50%" stop-color="#0EA5E9" />  <stop offset="100%" stop-color="#10B981" /> </linearGradient>
  </defs>

  <rect width="100%" height="100%" fill="none" />

  <path d="M 140,70 
           C 90,70 90,120 90,160 
           C 90,180 80,195 40,200 
           C 80,205 90,220 90,240 
           C 90,280 90,330 140,330" 
        fill="none" 
        stroke="url(#oasGrad)" 
        stroke-width="24" 
        stroke-linecap="round" 
        stroke-linejoin="round" />

  <path d="M 260,70 
           C 310,70 310,120 310,160 
           C 310,180 320,195 360,200 
           C 320,205 310,220 310,240 
           C 310,280 310,330 260,330" 
        fill="none" 
        stroke="url(#oasGrad)" 
        stroke-width="24" 
        stroke-linecap="round" 
        stroke-linejoin="round" />

  <path d="M 140,200 L 200,200 L 260,140 M 200,200 L 260,260" 
        fill="none" 
        stroke="url(#oasGrad)" 
        stroke-width="12" 
        stroke-linecap="round" 
        stroke-linejoin="round" />

  <circle cx="140" cy="200" r="12" fill="url(#oasGrad)" />
  
  <circle cx="200" cy="200" r="16" fill="url(#oasGrad)" />
  
  <circle cx="260" cy="140" r="12" fill="url(#oasGrad)" />
  
  <circle cx="260" cy="260" r="12" fill="url(#oasGrad)" />

</svg>
